<?xml version="1.0" encoding="utf-8"?>
<!-- Generator: Adobe Illustrator 18.1.1, SVG Export Plug-In . SVG Version: 6.00 Build 0)  -->
<!DOCTYPE svg PUBLIC "-//W3C//DTD SVG 1.1//EN" "http://www.w3.org/Graphics/SVG/1.1/DTD/svg11.dtd">
<svg version="1.1" xmlns="http://www.w3.org/2000/svg" xmlns:xlink="http://www.w3.org/1999/xlink" x="0px" y="0px"
	 viewBox="0 0 900 900" enable-background="new 0 0 900 900" xml:space="preserve">
<g id="FLOW01" display="none">
	<circle display="inline" fill="none" stroke="#F65A5B" stroke-miterlimit="10" cx="560" cy="210" r="150"/>
	<circle display="inline" fill="none" stroke="#F65A5B" stroke-miterlimit="10" cx="560" cy="60" r="100"/>
	<circle display="inline" fill="none" stroke="#F65A5B" stroke-miterlimit="10" cx="343.5" cy="335" r="100"/>
	<circle display="inline" fill="none" stroke="#F65A5B" stroke-miterlimit="10" cx="380.1" cy="198.4" r="100"/>
	<circle display="inline" fill="none" stroke="#F65A5B" stroke-miterlimit="10" cx="480.1" cy="371.6" r="100"/>
	<path display="inline" fill="#BDBFBF" d="M583.5-93.8c-9.2-2.1-17.7-4-13.6-11.8c12.6-23.7,3.3-36.4-10-36.4
		c-13.6,0-22.6,13.2-10,36.4c4.3,7.8-4.6,9.7-13.6,11.8c-7.6,1.8-8.4,5.4-8.5,11.7c0,2.2,1.8,4,4,4h56c2.2,0,4-1.8,4-4
		C591.9-88.4,591.2-92,583.5-93.8z"/>
	<path display="inline" fill="#FBCB44" d="M43.6,85H9c11,0,20,9,20,20c0,3.6-1,7-2.7,10l0,0L9,145c22.1,0,40-17.9,40-40
		C49,97.7,47,90.9,43.6,85z"/>
	<path display="inline" fill="#34B67A" d="M9,125c-7.4,0-13.8-4-17.3-10l0,0l-17.3-30C-29,90.9-31,97.7-31,105c0,22.1,17.9,40,40,40
		l17.3-30l0,0C22.8,121,16.4,125,9,125z"/>
	<path display="inline" fill="#DC4437" d="M-11,105c0-11,9-20,20-20h34.6C36.7,73,23.8,65,9,65c-14.8,0-27.7,8-34.6,20l17.3,30l0,0
		C-10,112-11,108.6-11,105z"/>
	<circle display="inline" fill="#4385F5" cx="9" cy="105" r="15"/>
	<g display="inline">
		<rect x="927.5" y="459.5" opacity="0.15" fill="#59A1C9" width="199" height="49"/>
		<path fill="#59A1C9" d="M1126,460v48H928v-48H1126 M1127,459H927v50h200V459L1127,459z"/>
	</g>
	<text transform="matrix(1 0 0 1 978.8521 490)" display="inline" fill="#59A1C9" font-family="'Oxygen-Light'" font-size="18">Rails Router</text>
	<g display="inline">
		<rect x="-30.5" y="491.5" opacity="0.15" fill="#59A1C9" width="199" height="49"/>
		<path fill="#59A1C9" d="M168,492v48H-30v-48H168 M169,491H-31v50h200V491L169,491z"/>
	</g>
	<text transform="matrix(1 0 0 1 28.6607 522)" display="inline" fill="#59A1C9" font-family="'Oxygen-Light'" font-size="18">Controller</text>
	<g display="inline">
		<rect x="160.5" y="671.5" opacity="0.15" fill="#59A1C9" width="199" height="49"/>
		<path fill="#59A1C9" d="M359,672v48H161v-48H359 M360,671H160v50h200V671L360,671z"/>
	</g>
	<text transform="matrix(1 0 0 1 234.2871 702)" display="inline" fill="#59A1C9" font-family="'Oxygen-Light'" font-size="18">Model</text>
	<g display="inline">
		<rect x="460.5" y="671.5" opacity="0.15" fill="#59A1C9" width="199" height="49"/>
		<path fill="#59A1C9" d="M659,672v48H461v-48H659 M660,671H460v50h200V671L660,671z"/>
	</g>
	<text transform="matrix(1 0 0 1 541.0982 702)" display="inline" fill="#59A1C9" font-family="'Oxygen-Light'" font-size="18">View</text>
</g>
<g id="STATIC_x5F_RAILS" display="none">
	<g display="inline">
		<g>
			<path fill="none" stroke="#204056" stroke-miterlimit="10" d="M412.5,490.2c-1.7-9-2.5-18.2-2.5-27.7c0-65,41.4-120.4,99.3-141.2
				"/>
			<g>
				<polygon fill="#204056" points="507.6,326.3 506.7,325.8 508.9,321.4 504.4,319.6 504.8,318.6 510.3,320.9 				"/>
			</g>
		</g>
	</g>
	<g display="inline">
		<g>
			<path fill="none" stroke="#204056" stroke-miterlimit="10" d="M658,576c-26.3,22.7-60.6,36.5-98,36.5
				c-36.3,0-69.6-12.9-95.5-34.4"/>
			<g>
				<polygon fill="#204056" points="469.6,577 469.7,578 464.8,578.4 465.5,583.2 464.5,583.4 463.6,577.4 				"/>
			</g>
		</g>
	</g>
	<g display="inline">
		<g>
			<path fill="none" stroke="#204056" stroke-miterlimit="10" d="M609,320.7c58.8,20.3,101,76.1,101,141.8c0,9.1-0.8,17.9-2.3,26.5"
				/>
			<g>
				<polygon fill="#204056" points="704.1,485.1 705,484.5 707.7,488.6 711.6,485.6 712.2,486.4 707.5,490.1 				"/>
			</g>
		</g>
	</g>
	<path display="inline" fill="#BDBFBF" d="M583.5,128.7c-9.2-2.1-17.7-4-13.6-11.8c12.6-23.7,3.3-36.4-10-36.4
		c-13.6,0-22.6,13.2-10,36.4c4.3,7.8-4.6,9.7-13.6,11.8c-7.6,1.8-8.4,5.4-8.5,11.7c0,2.2,1.8,4,4,4h56c2.2,0,4-1.8,4-4
		C591.9,134.1,591.2,130.5,583.5,128.7z"/>
	<path display="inline" fill="#FBCB44" d="M594.6,292.5H560c11,0,20,9,20,20c0,3.6-1,7-2.7,10l0,0l-17.3,30c22.1,0,40-17.9,40-40
		C600,305.2,598,298.4,594.6,292.5z"/>
	<path display="inline" fill="#34B67A" d="M560,332.5c-7.4,0-13.8-4-17.3-10l0,0l-17.3-30c-3.4,5.9-5.4,12.7-5.4,20
		c0,22.1,17.9,40,40,40l17.3-30l0,0C573.8,328.5,567.4,332.5,560,332.5z"/>
	<path display="inline" fill="#DC4437" d="M540,312.5c0-11,9-20,20-20h34.6c-6.9-12-19.8-20-34.6-20c-14.8,0-27.7,8-34.6,20l17.3,30
		l0,0C541,319.5,540,316.1,540,312.5z"/>
	<circle display="inline" fill="#4385F5" cx="560" cy="312.5" r="15"/>
	<g display="inline">
		<rect x="350.6" y="513" opacity="0.15" fill="#59A1C9" width="159" height="49"/>
		<path fill="#59A1C9" d="M509.1,513.5v48h-158v-48H509.1 M510.1,512.5h-160v50h160V512.5L510.1,512.5z"/>
	</g>
	
		<text transform="matrix(1 0 0 1 389.7583 543.4916)" display="inline" fill="#59A1C9" font-family="'Oxygen-Light'" font-size="18">Controller</text>
	<text transform="matrix(1 0 0 1 596.9854 218.6358)" display="inline" fill="#F65A5B" font-family="'Oxygen-Bold'" font-size="18">1</text>
	<g display="inline">
		<rect x="610.4" y="513" opacity="0.15" fill="#59A1C9" width="159" height="49"/>
		<path fill="#59A1C9" d="M768.9,513.5v48h-158v-48H768.9 M769.9,512.5h-160v50h160V512.5L769.9,512.5z"/>
	</g>
	
		<text transform="matrix(1 0 0 1 641.7573 543.4916)" display="inline" fill="#59A1C9" font-family="'Oxygen-Light'" font-size="18">Rails Router</text>
	<text transform="matrix(1 0 0 1 711.2527 378.6361)" display="inline" fill="#F65A5B" font-family="'Oxygen-Bold'" font-size="18">2</text>
	<text transform="matrix(1 0 0 1 555.2627 638.6361)" display="inline" fill="#F65A5B" font-family="'Oxygen-Bold'" font-size="18">3</text>
	<text transform="matrix(1 0 0 1 299.5865 588.6357)" display="inline" fill="#F65A5B" font-family="'Oxygen-Bold'" font-size="18">4</text>
	<text transform="matrix(1 0 0 1 300.0914 498.6358)" display="inline" fill="#F65A5B" font-family="'Oxygen-Bold'" font-size="18">5</text>
	<text transform="matrix(1 0 0 1 397.8205 378.6361)" display="inline" fill="#F65A5B" font-family="'Oxygen-Bold'" font-size="18">6</text>
	<text transform="matrix(1 0 0 1 527.1324 377.492)" display="inline" fill="#4385F5" font-family="'Oxygen-Light'" font-size="18">Browser</text>
	<g display="inline">
		<g>
			<line fill="none" stroke="#204056" stroke-miterlimit="10" x1="580" y1="251.4" x2="580" y2="164.5"/>
			<g>
				<polygon fill="#204056" points="584.1,248.1 583.4,247.4 580,251 576.6,247.4 575.9,248.1 580,252.5 				"/>
			</g>
		</g>
	</g>
	<g display="inline">
		<g>
			<line fill="none" stroke="#204056" stroke-miterlimit="10" x1="540" y1="252.5" x2="540" y2="165.5"/>
			<g>
				<polygon fill="#204056" points="544.1,168.9 543.4,169.5 540,165.9 536.6,169.5 535.9,168.9 540,164.5 				"/>
			</g>
		</g>
	</g>
	<g display="inline">
		<rect x="100.6" y="513" opacity="0.15" fill="#59A1C9" width="159" height="49"/>
		<path fill="#59A1C9" d="M259.1,513.5v48h-158v-48H259.1 M260.1,512.5h-160v50h160V512.5L260.1,512.5z"/>
	</g>
	
		<text transform="matrix(1 0 0 1 161.1881 543.4916)" display="inline" fill="#59A1C9" font-family="'Oxygen-Light'" font-size="18">View</text>
	<g display="inline">
		<g>
			<line fill="none" stroke="#204056" stroke-miterlimit="10" x1="280.1" y1="522.5" x2="329" y2="522.5"/>
			<g>
				<polygon fill="#204056" points="325.7,526.6 325,525.8 328.6,522.5 325,519.1 325.7,518.4 330.1,522.5 				"/>
			</g>
		</g>
	</g>
	<g display="inline">
		<g>
			<line fill="none" stroke="#204056" stroke-miterlimit="10" x1="281.2" y1="552.5" x2="330.1" y2="552.5"/>
			<g>
				<polygon fill="#204056" points="284.5,556.6 285.2,555.8 281.6,552.5 285.2,549.1 284.5,548.4 280.1,552.5 				"/>
			</g>
		</g>
	</g>
</g>
<g id="DYNAMIC_x5F_RAILS">
	<g>
		<rect x="350.6" y="713" opacity="0.15" fill="#59A1C9" width="159" height="49"/>
		<path fill="#59A1C9" d="M509.1,713.5v48h-158v-48H509.1 M510.1,712.5h-160v50h160V712.5L510.1,712.5z"/>
	</g>
	<g>
		<path fill="#59A1C9" d="M406,743.5v-13.1h1.6l4.8,11l4.7-11h1.5v13.1h-1.1v-8.8l0.1-3l-0.3,1.1l-4.3,10h-1.2l-4.4-10l-0.3-1.1
			l0.1,3v8.8H406z"/>
		<path fill="#59A1C9" d="M425.4,743.7c-0.9,0-1.6-0.2-2.3-0.7c-0.7-0.4-1.2-1-1.5-1.8s-0.5-1.6-0.5-2.6c0-0.7,0.1-1.4,0.3-2
			c0.2-0.6,0.5-1.1,0.9-1.6s0.8-0.8,1.4-1.1s1.2-0.4,1.9-0.4c0.9,0,1.7,0.2,2.3,0.7s1.2,1,1.5,1.8s0.5,1.6,0.5,2.6
			c0,1-0.2,1.8-0.5,2.6s-0.8,1.3-1.5,1.8S426.4,743.7,425.4,743.7z M425.5,742.8c0.7,0,1.3-0.2,1.8-0.6c0.5-0.4,0.8-0.9,1.1-1.5
			c0.2-0.6,0.3-1.3,0.3-2.1c0-1.2-0.3-2.2-0.8-3s-1.3-1.1-2.4-1.1c-0.7,0-1.3,0.2-1.8,0.6s-0.9,0.9-1.1,1.5s-0.3,1.3-0.3,2.1
			c0,1.2,0.3,2.2,0.8,3C423.7,742.4,424.5,742.8,425.5,742.8z"/>
		<path fill="#59A1C9" d="M435.6,743.7c-1.3,0-2.3-0.4-3-1.3c-0.7-0.9-1.1-2.1-1.1-3.7c0-1.5,0.4-2.7,1.1-3.6
			c0.7-0.9,1.7-1.4,2.9-1.4c0.6,0,1.2,0.1,1.8,0.4s1.1,0.7,1.4,1.2V735v-4.9l1.1-0.1v13.5h-0.9l-0.2-1.5c-0.3,0.5-0.8,1-1.4,1.2
			C436.8,743.5,436.2,743.7,435.6,743.7z M435.6,742.8c0.5,0,1-0.1,1.4-0.3s0.7-0.5,1-0.8s0.4-0.8,0.5-1.3c0.1-0.5,0.2-1,0.2-1.6
			c0-2.9-1.1-4.3-3.2-4.3c-0.5,0-0.9,0.1-1.3,0.4s-0.7,0.6-0.9,1c-0.2,0.4-0.4,0.8-0.5,1.3s-0.2,1-0.2,1.5c0,0.5,0,0.9,0.1,1.3
			s0.2,0.8,0.3,1.1s0.3,0.7,0.5,0.9s0.5,0.5,0.8,0.6S435.2,742.8,435.6,742.8z"/>
		<path fill="#59A1C9" d="M446.3,743.7c-1.3,0-2.4-0.4-3.2-1.3c-0.8-0.9-1.2-2.1-1.2-3.6c0-1.5,0.4-2.7,1.1-3.6
			c0.8-0.9,1.8-1.4,3-1.5c1.1,0,2,0.4,2.7,1.2s1,1.9,1,3.3c0,0.1,0,0.2,0,0.3c0,0.2,0,0.3,0,0.3h-6.7c0,1.2,0.3,2.2,0.9,2.9
			s1.4,1.1,2.3,1.1c0.6,0,1.2-0.1,1.6-0.2s0.9-0.4,1.5-0.6l0.2,0.8C448.6,743.4,447.5,743.7,446.3,743.7z M443.1,737.9h5.5
			c0-1.1-0.2-1.9-0.7-2.5s-1.1-0.9-1.9-0.9c-0.8,0-1.5,0.3-2,0.9S443.2,736.9,443.1,737.9z"/>
		<path fill="#59A1C9" d="M454.4,743.7c-0.8,0-1.4-0.2-1.8-0.5s-0.6-1-0.6-1.8v-11.2l1.1-0.1v11.3c0,0.6,0.1,1,0.3,1.2
			c0.2,0.2,0.5,0.3,1,0.3c0.4,0,0.8-0.1,1.3-0.2l0,0.8C455.2,743.6,454.8,743.7,454.4,743.7z"/>
	</g>
	<g>
		<path fill="#4A4A4C" d="M694.6,743.5v-13.1h3.5c1.1,0,2,0.1,2.9,0.4s1.6,0.6,2.2,1.2s1.1,1.2,1.4,2s0.5,1.8,0.5,3
			c0,2.1-0.6,3.8-1.8,4.9s-2.8,1.7-4.9,1.7H694.6z M695.7,742.5h2.6c1.8,0,3.2-0.5,4.2-1.4s1.4-2.3,1.4-4.2c0-1-0.1-1.9-0.4-2.6
			c-0.3-0.7-0.7-1.3-1.2-1.8s-1.1-0.8-1.8-1s-1.5-0.3-2.4-0.3h-2.3V742.5z"/>
		<path fill="#4A4A4C" d="M710,743.7c-0.9,0-1.6-0.2-2.2-0.7s-0.8-1.1-0.8-2c0-0.5,0.1-0.9,0.3-1.3s0.5-0.7,0.9-0.9
			c0.4-0.2,0.9-0.4,1.4-0.5s1.1-0.2,1.9-0.3c0.8,0,1.3-0.1,1.7-0.1v-1.1c0-0.7-0.2-1.3-0.5-1.7c-0.3-0.4-0.9-0.6-1.6-0.6
			c-1,0-2,0.2-2.9,0.7c0-0.1-0.1-0.2-0.2-0.4c-0.1-0.2-0.1-0.3-0.2-0.5c0.4-0.2,0.8-0.4,1.4-0.6s1.2-0.2,1.7-0.2
			c1.2,0,2,0.2,2.5,0.7s0.8,1.4,0.8,2.6v6.4h-0.9c0-0.1-0.1-0.4-0.1-0.8s-0.1-0.6-0.1-0.6C712.5,743.1,711.4,743.7,710,743.7z
			 M710.1,742.8c0.8,0,1.4-0.2,2-0.7c0.6-0.4,1-1.1,1.1-1.8v-1.6c-0.8,0.1-1.3,0.1-1.3,0.1c-1.4,0.1-2.4,0.4-3,0.7s-0.8,0.9-0.8,1.6
			c0,0.6,0.2,1,0.5,1.3C709,742.7,709.5,742.8,710.1,742.8z"/>
		<path fill="#4A4A4C" d="M719.6,743.7c-0.8,0-1.4-0.2-1.8-0.5s-0.6-1-0.6-1.8v-6.7h-1.4l0.1-0.7l1.3-0.1l0.3-2.2l0.8-0.1v2.2h2.8
			v0.8h-2.8v6.5c0,0.7,0.1,1.1,0.3,1.4s0.6,0.3,1.2,0.3c0.4,0,0.8-0.1,1.4-0.2l0,0.8C720.6,743.6,720,743.7,719.6,743.7z"/>
		<path fill="#4A4A4C" d="M725.4,743.7c-0.9,0-1.6-0.2-2.2-0.7s-0.8-1.1-0.8-2c0-0.5,0.1-0.9,0.3-1.3s0.5-0.7,0.9-0.9
			c0.4-0.2,0.9-0.4,1.4-0.5s1.1-0.2,1.9-0.3c0.8,0,1.3-0.1,1.7-0.1v-1.1c0-0.7-0.2-1.3-0.5-1.7c-0.3-0.4-0.9-0.6-1.6-0.6
			c-1,0-2,0.2-2.9,0.7c0-0.1-0.1-0.2-0.2-0.4c-0.1-0.2-0.1-0.3-0.2-0.5c0.4-0.2,0.8-0.4,1.4-0.6s1.2-0.2,1.7-0.2
			c1.2,0,2,0.2,2.5,0.7s0.8,1.4,0.8,2.6v6.4h-0.9c0-0.1-0.1-0.4-0.1-0.8s-0.1-0.6-0.1-0.6C727.9,743.1,726.8,743.7,725.4,743.7z
			 M725.5,742.8c0.8,0,1.4-0.2,2-0.7c0.6-0.4,1-1.1,1.1-1.8v-1.6c-0.8,0.1-1.3,0.1-1.3,0.1c-1.4,0.1-2.4,0.4-3,0.7s-0.8,0.9-0.8,1.6
			c0,0.6,0.2,1,0.5,1.3C724.4,742.7,724.9,742.8,725.5,742.8z"/>
		<path fill="#4A4A4C" d="M736.5,743.7c-1.3,0-2.3-0.5-3.1-1.6l-0.1,1.4h-0.9v-13.4l1.1-0.1v3.2c0,1,0,1.7,0,2
			c0.4-0.6,0.8-1,1.4-1.2c0.6-0.3,1.1-0.4,1.7-0.4c1.3,0,2.3,0.5,3,1.4c0.7,0.9,1.1,2.1,1.1,3.6c0,1-0.2,1.9-0.5,2.6
			s-0.8,1.3-1.4,1.8S737.4,743.7,736.5,743.7z M736.5,742.8c0.5,0,1-0.1,1.4-0.3c0.4-0.2,0.7-0.5,0.9-0.9s0.4-0.8,0.5-1.3
			c0.1-0.5,0.1-1,0.1-1.5c0-0.4,0-0.8-0.1-1.2s-0.2-0.8-0.3-1.1s-0.3-0.7-0.5-0.9c-0.2-0.3-0.5-0.5-0.8-0.6
			c-0.3-0.2-0.7-0.2-1.2-0.2c-1,0-1.8,0.4-2.3,1.1c-0.5,0.7-0.8,1.8-0.8,3.1c0,0.6,0.1,1.2,0.2,1.6c0.1,0.5,0.3,0.9,0.5,1.3
			s0.6,0.6,1,0.8S736,742.8,736.5,742.8z"/>
		<path fill="#4A4A4C" d="M745.2,743.7c-0.9,0-1.6-0.2-2.2-0.7s-0.8-1.1-0.8-2c0-0.5,0.1-0.9,0.3-1.3s0.5-0.7,0.9-0.9
			c0.4-0.2,0.9-0.4,1.4-0.5s1.1-0.2,1.9-0.3c0.8,0,1.3-0.1,1.7-0.1v-1.1c0-0.7-0.2-1.3-0.5-1.7c-0.3-0.4-0.9-0.6-1.6-0.6
			c-1,0-2,0.2-2.9,0.7c0-0.1-0.1-0.2-0.2-0.4c-0.1-0.2-0.1-0.3-0.2-0.5c0.4-0.2,0.8-0.4,1.4-0.6s1.2-0.2,1.7-0.2
			c1.2,0,2,0.2,2.5,0.7s0.8,1.4,0.8,2.6v6.4h-0.9c0-0.1-0.1-0.4-0.1-0.8s-0.1-0.6-0.1-0.6C747.7,743.1,746.6,743.7,745.2,743.7z
			 M745.3,742.8c0.8,0,1.4-0.2,2-0.7c0.6-0.4,1-1.1,1.1-1.8v-1.6c-0.8,0.1-1.3,0.1-1.3,0.1c-1.4,0.1-2.4,0.4-3,0.7s-0.8,0.9-0.8,1.6
			c0,0.6,0.2,1,0.5,1.3C744.2,742.7,744.7,742.8,745.3,742.8z"/>
		<path fill="#4A4A4C" d="M754.9,743.7c-0.6,0-1.2-0.1-1.7-0.2s-1-0.3-1.3-0.5l0.2-0.9c1,0.5,1.9,0.8,2.8,0.8c1.6,0,2.4-0.6,2.5-1.8
			c0-0.5-0.2-0.9-0.5-1.2c-0.3-0.3-1-0.6-1.9-0.9c-0.5-0.2-0.8-0.3-0.8-0.3c-1.5-0.5-2.3-1.3-2.3-2.4c0-0.7,0.3-1.3,0.9-1.8
			s1.4-0.8,2.4-0.8s2,0.2,2.9,0.6l-0.4,0.8c-0.9-0.3-1.7-0.5-2.5-0.5c-0.7,0-1.2,0.2-1.6,0.5c-0.4,0.3-0.6,0.7-0.6,1.2
			c0,0.4,0.1,0.8,0.4,1c0.3,0.2,0.8,0.5,1.5,0.7c0.1,0,0.2,0.1,0.5,0.2c0.2,0.1,0.3,0.1,0.4,0.1c1,0.3,1.7,0.7,2.1,1.1
			c0.4,0.4,0.6,1,0.6,1.7c0,0.8-0.3,1.5-0.9,2S756,743.7,754.9,743.7z"/>
		<path fill="#4A4A4C" d="M764.3,743.7c-1.3,0-2.4-0.4-3.2-1.3c-0.8-0.9-1.2-2.1-1.2-3.6c0-1.5,0.4-2.7,1.1-3.6
			c0.8-0.9,1.8-1.4,3-1.5c1.1,0,2,0.4,2.7,1.2s1,1.9,1,3.3c0,0.1,0,0.2,0,0.3c0,0.2,0,0.3,0,0.3h-6.7c0,1.2,0.3,2.2,0.9,2.9
			s1.4,1.1,2.3,1.1c0.6,0,1.2-0.1,1.6-0.2s0.9-0.4,1.5-0.6l0.2,0.8C766.7,743.4,765.6,743.7,764.3,743.7z M761.2,737.9h5.5
			c0-1.1-0.2-1.9-0.7-2.5s-1.1-0.9-1.9-0.9c-0.8,0-1.5,0.3-2,0.9S761.3,736.9,761.2,737.9z"/>
	</g>
	<g>
		<path opacity="0.15" fill="#4A4A4C" d="M638,690c-19.3,0-35,4.5-35,10v75c0,5.5,15.7,10,35,10s35-4.5,35-10v-75
			C673,694.5,657.3,690,638,690z"/>
		<ellipse fill="none" stroke="#4A4A4C" stroke-miterlimit="10" cx="638" cy="700" rx="35" ry="10"/>
		<path fill="none" stroke="#4A4A4C" stroke-miterlimit="10" d="M673,725c0,5.5-15.7,10-35,10s-35-4.5-35-10"/>
		<path fill="none" stroke="#4A4A4C" stroke-miterlimit="10" d="M673,750c0,5.5-15.7,10-35,10s-35-4.5-35-10"/>
		<path fill="none" stroke="#4A4A4C" stroke-miterlimit="10" d="M603,700v75c0,5.5,15.7,10,35,10s35-4.5,35-10v-75"/>
	</g>
	<g>
		<g>
			<path fill="none" stroke="#204056" stroke-miterlimit="10" d="M412.5,490.2c-1.7-9-2.5-18.2-2.5-27.7c0-65,41.4-120.4,99.3-141.2
				"/>
			<g>
				<polygon fill="#204056" points="507.6,326.3 506.7,325.8 508.9,321.4 504.4,319.6 504.8,318.6 510.3,320.9 				"/>
			</g>
		</g>
	</g>
	<g>
		<g>
			<path fill="none" stroke="#204056" stroke-miterlimit="10" d="M658,576c-26.3,22.7-60.6,36.5-98,36.5
				c-36.3,0-69.6-12.9-95.5-34.4"/>
			<g>
				<polygon fill="#204056" points="469.6,577 469.7,578 464.8,578.4 465.5,583.2 464.5,583.4 463.6,577.4 				"/>
			</g>
		</g>
	</g>
	<g>
		<g>
			<path fill="none" stroke="#204056" stroke-miterlimit="10" d="M609,320.7c58.8,20.3,101,76.1,101,141.8c0,9.1-0.8,17.9-2.3,26.5"
				/>
			<g>
				<polygon fill="#204056" points="704.1,485.1 705,484.5 707.7,488.6 711.6,485.6 712.2,486.4 707.5,490.1 				"/>
			</g>
		</g>
	</g>
	<path fill="#BDBFBF" d="M583.5,128.7c-9.2-2.1-17.7-4-13.6-11.8c12.6-23.7,3.3-36.4-10-36.4c-13.6,0-22.6,13.2-10,36.4
		c4.3,7.8-4.6,9.7-13.6,11.8c-7.6,1.8-8.4,5.4-8.5,11.7c0,2.2,1.8,4,4,4h56c2.2,0,4-1.8,4-4C591.9,134.1,591.2,130.5,583.5,128.7z"
		/>
	<path fill="#FBCB44" d="M594.6,292.5H560c11,0,20,9,20,20c0,3.6-1,7-2.7,10l0,0l-17.3,30c22.1,0,40-17.9,40-40
		C600,305.2,598,298.4,594.6,292.5z"/>
	<path fill="#34B67A" d="M560,332.5c-7.4,0-13.8-4-17.3-10l0,0l-17.3-30c-3.4,5.9-5.4,12.7-5.4,20c0,22.1,17.9,40,40,40l17.3-30l0,0
		C573.8,328.5,567.4,332.5,560,332.5z"/>
	<path fill="#DC4437" d="M540,312.5c0-11,9-20,20-20h34.6c-6.9-12-19.8-20-34.6-20c-14.8,0-27.7,8-34.6,20l17.3,30l0,0
		C541,319.5,540,316.1,540,312.5z"/>
	<circle fill="#4385F5" cx="560" cy="312.5" r="15"/>
	<g>
		<rect x="350.6" y="513" opacity="0.15" fill="#59A1C9" width="159" height="49"/>
		<path fill="#59A1C9" d="M509.1,513.5v48h-158v-48H509.1 M510.1,512.5h-160v50h160V512.5L510.1,512.5z"/>
	</g>
	<g>
		<path fill="#59A1C9" d="M397,543.7c-1,0-1.9-0.2-2.7-0.5s-1.4-0.8-1.9-1.4c-0.5-0.6-0.9-1.3-1.1-2.1c-0.3-0.8-0.4-1.7-0.4-2.7
			c0-1.3,0.2-2.5,0.7-3.5c0.5-1,1.2-1.8,2.1-2.4s2.1-0.9,3.4-0.9c1.4,0,2.6,0.3,3.6,0.9l-0.5,0.9c-0.9-0.6-1.9-0.8-3.1-0.8
			c-0.8,0-1.5,0.2-2.2,0.5s-1.2,0.7-1.6,1.3s-0.7,1.2-0.9,1.9s-0.3,1.5-0.3,2.3c0,0.8,0.1,1.5,0.3,2.2c0.2,0.7,0.5,1.3,0.9,1.8
			c0.4,0.5,0.9,1,1.6,1.3s1.4,0.5,2.3,0.5c0.9,0,1.9-0.3,3.1-0.8l0.2,0.9C399.6,543.4,398.4,543.7,397,543.7z"/>
		<path fill="#59A1C9" d="M406.3,543.7c-0.9,0-1.6-0.2-2.3-0.7c-0.7-0.4-1.2-1-1.5-1.8s-0.5-1.6-0.5-2.6c0-0.7,0.1-1.4,0.3-2
			c0.2-0.6,0.5-1.1,0.9-1.6s0.8-0.8,1.4-1.1s1.2-0.4,1.9-0.4c0.9,0,1.7,0.2,2.3,0.7s1.2,1,1.5,1.8s0.5,1.6,0.5,2.6
			c0,1-0.2,1.8-0.5,2.6s-0.8,1.3-1.5,1.8S407.3,543.7,406.3,543.7z M406.4,542.8c0.7,0,1.3-0.2,1.8-0.6c0.5-0.4,0.8-0.9,1.1-1.5
			c0.2-0.6,0.3-1.3,0.3-2.1c0-1.2-0.3-2.2-0.8-3s-1.3-1.1-2.4-1.1c-0.7,0-1.3,0.2-1.8,0.6s-0.9,0.9-1.1,1.5s-0.3,1.3-0.3,2.1
			c0,1.2,0.3,2.2,0.8,3C404.6,542.4,405.4,542.8,406.4,542.8z"/>
		<path fill="#59A1C9" d="M412.9,543.5v-9.6h0.9l0.1,1.5c0.3-0.5,0.8-0.9,1.4-1.2s1.2-0.4,1.9-0.4c1.1,0,1.9,0.3,2.4,0.9
			s0.8,1.6,0.8,2.9v6h-1.1V537c0-0.9-0.2-1.5-0.5-1.8s-0.9-0.6-1.6-0.6c-0.9,0-1.6,0.2-2.1,0.7c-0.6,0.4-0.9,1-1,1.7
			c0,0.3,0,0.6,0,0.9v5.7H412.9z"/>
		<path fill="#59A1C9" d="M425.7,543.7c-0.8,0-1.4-0.2-1.8-0.5s-0.6-1-0.6-1.8v-6.7H422l0.1-0.7l1.3-0.1l0.3-2.2l0.8-0.1v2.2h2.8
			v0.8h-2.8v6.5c0,0.7,0.1,1.1,0.3,1.4s0.6,0.3,1.2,0.3c0.4,0,0.8-0.1,1.4-0.2l0,0.8C426.7,543.6,426.1,543.7,425.7,543.7z"/>
		<path fill="#59A1C9" d="M429,543.5c0-5.7,0-8.9,0-9.6h0.9l0.1,1.9c0.3-0.6,0.8-1,1.3-1.4s1.1-0.5,1.7-0.5c0.2,0,0.5,0,0.8,0.1
			l-0.1,0.9c-0.2,0-0.4-0.1-0.7-0.1c-0.8,0-1.5,0.3-2.1,1c-0.6,0.6-0.8,1.4-0.8,2.3v5.5H429z"/>
		<path fill="#59A1C9" d="M439,543.7c-0.9,0-1.6-0.2-2.3-0.7c-0.7-0.4-1.2-1-1.5-1.8s-0.5-1.6-0.5-2.6c0-0.7,0.1-1.4,0.3-2
			c0.2-0.6,0.5-1.1,0.9-1.6s0.8-0.8,1.4-1.1s1.2-0.4,1.9-0.4c0.9,0,1.7,0.2,2.3,0.7s1.2,1,1.5,1.8s0.5,1.6,0.5,2.6
			c0,1-0.2,1.8-0.5,2.6s-0.8,1.3-1.5,1.8S439.9,543.7,439,543.7z M439.1,542.8c0.7,0,1.3-0.2,1.8-0.6c0.5-0.4,0.8-0.9,1.1-1.5
			c0.2-0.6,0.3-1.3,0.3-2.1c0-1.2-0.3-2.2-0.8-3s-1.3-1.1-2.4-1.1c-0.7,0-1.3,0.2-1.8,0.6s-0.9,0.9-1.1,1.5s-0.3,1.3-0.3,2.1
			c0,1.2,0.3,2.2,0.8,3C437.2,542.4,438,542.8,439.1,542.8z"/>
		<path fill="#59A1C9" d="M448,543.7c-0.8,0-1.4-0.2-1.8-0.5s-0.6-1-0.6-1.8v-11.2l1.1-0.1v11.3c0,0.6,0.1,1,0.3,1.2
			c0.2,0.2,0.5,0.3,1,0.3c0.4,0,0.8-0.1,1.3-0.2l0,0.8C448.8,543.6,448.3,543.7,448,543.7z"/>
		<path fill="#59A1C9" d="M453.1,543.7c-0.8,0-1.4-0.2-1.8-0.5s-0.6-1-0.6-1.8v-11.2l1.1-0.1v11.3c0,0.6,0.1,1,0.3,1.2
			c0.2,0.2,0.5,0.3,1,0.3c0.4,0,0.8-0.1,1.3-0.2l0,0.8C453.9,543.6,453.4,543.7,453.1,543.7z"/>
		<path fill="#59A1C9" d="M459.7,543.7c-1.3,0-2.4-0.4-3.2-1.3c-0.8-0.9-1.2-2.1-1.2-3.6c0-1.5,0.4-2.7,1.1-3.6
			c0.8-0.9,1.8-1.4,3-1.5c1.1,0,2,0.4,2.7,1.2s1,1.9,1,3.3c0,0.1,0,0.2,0,0.3c0,0.2,0,0.3,0,0.3h-6.7c0,1.2,0.3,2.2,0.9,2.9
			s1.4,1.1,2.3,1.1c0.6,0,1.2-0.1,1.6-0.2s0.9-0.4,1.5-0.6l0.2,0.8C462,543.4,460.9,543.7,459.7,543.7z M456.5,537.9h5.5
			c0-1.1-0.2-1.9-0.7-2.5s-1.1-0.9-1.9-0.9c-0.8,0-1.5,0.3-2,0.9S456.6,536.9,456.5,537.9z"/>
		<path fill="#59A1C9" d="M465.4,543.5c0-5.7,0-8.9,0-9.6h0.9l0.1,1.9c0.3-0.6,0.8-1,1.3-1.4s1.1-0.5,1.7-0.5c0.2,0,0.5,0,0.8,0.1
			l-0.1,0.9c-0.2,0-0.4-0.1-0.7-0.1c-0.8,0-1.5,0.3-2.1,1c-0.6,0.6-0.8,1.4-0.8,2.3v5.5H465.4z"/>
	</g>
	<g>
		<path fill="#F65A5B" d="M599.6,218.6v-10.7c-0.1,0.1-0.5,0.2-1.1,0.5c-0.7,0.3-1.1,0.4-1.1,0.5v-1.8c0.1-0.1,0.6-0.3,1.3-0.7
			s1.2-0.6,1.2-0.6h1.9v12.8H599.6z"/>
	</g>
	<g>
		<rect x="610.4" y="513" opacity="0.15" fill="#59A1C9" width="159" height="49"/>
		<path fill="#59A1C9" d="M768.9,513.5v48h-158v-48H768.9 M769.9,512.5h-160v50h160V512.5L769.9,512.5z"/>
	</g>
	<g>
		<path fill="#59A1C9" d="M643.4,543.5v-13.1h3.7c0.5,0,0.9,0,1.2,0c0.3,0,0.7,0.1,1.1,0.1s0.7,0.1,0.9,0.2c0.3,0.1,0.5,0.2,0.7,0.4
			c0.2,0.2,0.4,0.4,0.6,0.6s0.2,0.5,0.3,0.8c0.1,0.3,0.1,0.7,0.1,1.1c0,0.8-0.2,1.5-0.6,2.1s-1,1-1.8,1.2c0.4,0.7,0.6,1.3,0.8,1.6
			l2.1,4.9h-1.3l-1.8-4.5c-0.1-0.3-0.4-0.9-0.8-1.9c-0.1,0-0.6,0-1.3,0l-2.8-0.1v6.4H643.4z M647.8,536.2c1.2,0,2-0.2,2.4-0.6
			s0.7-1,0.7-1.9c0-0.8-0.2-1.3-0.6-1.8c-0.4-0.4-1.1-0.6-2.1-0.6h-3.7v4.8C645.9,536.2,647,536.2,647.8,536.2z"/>
		<path fill="#59A1C9" d="M657.3,543.7c-0.9,0-1.6-0.2-2.2-0.7s-0.8-1.1-0.8-2c0-0.5,0.1-0.9,0.3-1.3s0.5-0.7,0.9-0.9
			c0.4-0.2,0.9-0.4,1.4-0.5c0.5-0.1,1.1-0.2,1.9-0.3c0.8,0,1.3-0.1,1.7-0.1v-1.1c0-0.7-0.2-1.3-0.5-1.7c-0.3-0.4-0.9-0.6-1.6-0.6
			c-1,0-2,0.2-2.9,0.7c0-0.1-0.1-0.2-0.2-0.4c-0.1-0.2-0.1-0.3-0.2-0.5c0.4-0.2,0.8-0.4,1.4-0.6s1.2-0.2,1.7-0.2
			c1.2,0,2,0.2,2.5,0.7s0.8,1.4,0.8,2.6v6.4h-0.9c0-0.1-0.1-0.4-0.1-0.8c-0.1-0.4-0.1-0.6-0.1-0.6
			C659.8,543.2,658.7,543.7,657.3,543.7z M657.4,542.8c0.8,0,1.4-0.2,2-0.7c0.6-0.4,1-1.1,1.1-1.8v-1.6c-0.8,0.1-1.3,0.1-1.3,0.1
			c-1.4,0.1-2.4,0.4-3,0.7s-0.8,0.9-0.8,1.6c0,0.6,0.2,1,0.5,1.3C656.3,542.7,656.8,542.8,657.4,542.8z"/>
		<path fill="#59A1C9" d="M664.3,531.9v-1.5h1.1v1.5H664.3z M664.3,543.5v-9.6h1.1v9.6H664.3z"/>
		<path fill="#59A1C9" d="M670.6,543.7c-0.8,0-1.4-0.2-1.8-0.5s-0.6-1-0.6-1.8v-11.2l1.1-0.1v11.3c0,0.6,0.1,1,0.3,1.2
			c0.2,0.2,0.5,0.3,1,0.3c0.4,0,0.8-0.1,1.3-0.2l0,0.8C671.4,543.6,670.9,543.7,670.6,543.7z"/>
		<path fill="#59A1C9" d="M676.1,543.7c-0.6,0-1.2-0.1-1.7-0.2s-1-0.3-1.3-0.5l0.2-0.9c1,0.5,1.9,0.8,2.8,0.8c1.6,0,2.4-0.6,2.5-1.8
			c0-0.5-0.2-0.9-0.5-1.2c-0.3-0.3-1-0.6-1.9-0.9c-0.5-0.2-0.8-0.3-0.8-0.3c-1.5-0.5-2.3-1.3-2.3-2.4c0-0.7,0.3-1.3,0.9-1.8
			c0.6-0.5,1.4-0.8,2.4-0.8s2,0.2,2.9,0.6l-0.4,0.8c-0.9-0.3-1.7-0.5-2.5-0.5c-0.7,0-1.2,0.2-1.6,0.5c-0.4,0.3-0.6,0.7-0.6,1.2
			c0,0.4,0.1,0.8,0.4,1c0.3,0.2,0.8,0.5,1.5,0.7c0.1,0,0.2,0.1,0.5,0.2c0.2,0.1,0.3,0.1,0.4,0.1c1,0.3,1.7,0.7,2.1,1.1
			c0.4,0.4,0.6,1,0.6,1.7c0,0.8-0.3,1.5-0.9,2C677.9,543.5,677.1,543.7,676.1,543.7z"/>
		<path fill="#59A1C9" d="M685.9,543.5v-13.1h3.7c0.5,0,0.9,0,1.2,0c0.3,0,0.7,0.1,1.1,0.1s0.7,0.1,0.9,0.2c0.3,0.1,0.5,0.2,0.7,0.4
			c0.2,0.2,0.4,0.4,0.6,0.6s0.2,0.5,0.3,0.8c0.1,0.3,0.1,0.7,0.1,1.1c0,0.8-0.2,1.5-0.6,2.1s-1,1-1.8,1.2c0.4,0.7,0.6,1.3,0.8,1.6
			l2.1,4.9h-1.3L692,539c-0.1-0.3-0.4-0.9-0.8-1.9c-0.1,0-0.6,0-1.3,0l-2.8-0.1v6.4H685.9z M690.4,536.2c1.2,0,2-0.2,2.4-0.6
			s0.7-1,0.7-1.9c0-0.8-0.2-1.3-0.6-1.8c-0.4-0.4-1.1-0.6-2.1-0.6H687v4.8C688.4,536.2,689.5,536.2,690.4,536.2z"/>
		<path fill="#59A1C9" d="M701.2,543.7c-0.9,0-1.6-0.2-2.3-0.7c-0.7-0.4-1.2-1-1.5-1.8c-0.3-0.8-0.5-1.6-0.5-2.6
			c0-0.7,0.1-1.4,0.3-2c0.2-0.6,0.5-1.1,0.9-1.6s0.8-0.8,1.4-1.1s1.2-0.4,1.9-0.4c0.9,0,1.7,0.2,2.3,0.7s1.2,1,1.5,1.8
			c0.3,0.7,0.5,1.6,0.5,2.6c0,1-0.2,1.8-0.5,2.6s-0.8,1.3-1.5,1.8S702.2,543.7,701.2,543.7z M701.3,542.8c0.7,0,1.3-0.2,1.8-0.6
			c0.5-0.4,0.8-0.9,1.1-1.5c0.2-0.6,0.3-1.3,0.3-2.1c0-1.2-0.3-2.2-0.8-3s-1.3-1.1-2.4-1.1c-0.7,0-1.3,0.2-1.8,0.6
			c-0.5,0.4-0.9,0.9-1.1,1.5s-0.3,1.3-0.3,2.1c0,1.2,0.3,2.2,0.8,3C699.5,542.4,700.3,542.8,701.3,542.8z"/>
		<path fill="#59A1C9" d="M711.4,543.7c-0.5,0-1-0.1-1.4-0.2c-0.4-0.1-0.8-0.3-1.2-0.5s-0.7-0.6-0.9-1c-0.2-0.4-0.3-1-0.3-1.6v-6.6
			h1.1v6.6c0,0.5,0.1,0.8,0.2,1.2s0.3,0.6,0.6,0.7s0.5,0.3,0.8,0.3s0.6,0.1,1,0.1c0.4,0,0.7,0,1-0.1s0.6-0.2,0.8-0.3
			s0.5-0.4,0.6-0.7c0.1-0.3,0.2-0.7,0.2-1.1v-6.6h1.1v6.6c0,0.5-0.1,0.9-0.2,1.3s-0.3,0.7-0.6,0.9s-0.5,0.5-0.8,0.6
			c-0.3,0.2-0.7,0.3-1,0.3C712.1,543.7,711.8,543.7,711.4,543.7z"/>
		<path fill="#59A1C9" d="M720.2,543.7c-0.8,0-1.4-0.2-1.8-0.5s-0.6-1-0.6-1.8v-6.7h-1.4l0.1-0.7l1.3-0.1l0.3-2.2l0.8-0.1v2.2h2.8
			v0.8H719v6.5c0,0.7,0.1,1.1,0.3,1.4s0.6,0.3,1.2,0.3c0.4,0,0.8-0.1,1.4-0.2l0,0.8C721.2,543.6,720.6,543.7,720.2,543.7z"/>
		<path fill="#59A1C9" d="M727.4,543.7c-1.3,0-2.4-0.4-3.2-1.3c-0.8-0.9-1.2-2.1-1.2-3.6c0-1.5,0.4-2.7,1.1-3.6
			c0.8-0.9,1.8-1.4,3-1.5c1.1,0,2,0.4,2.7,1.2s1,1.9,1,3.3c0,0.1,0,0.2,0,0.3c0,0.2,0,0.3,0,0.3h-6.7c0,1.2,0.3,2.2,0.9,2.9
			s1.4,1.1,2.3,1.1c0.6,0,1.2-0.1,1.6-0.2s0.9-0.4,1.4-0.6l0.2,0.8C729.7,543.4,728.6,543.7,727.4,543.7z M724.2,537.9h5.5
			c0-1.1-0.2-1.9-0.7-2.5s-1.1-0.9-1.9-0.9c-0.8,0-1.5,0.3-2,0.9S724.3,536.9,724.2,537.9z"/>
		<path fill="#59A1C9" d="M733.1,543.5c0-5.7,0-8.9,0-9.6h0.9l0.1,1.9c0.3-0.6,0.8-1,1.3-1.4s1.1-0.5,1.7-0.5c0.2,0,0.5,0,0.8,0.1
			l-0.1,0.9c-0.2,0-0.4-0.1-0.7-0.1c-0.8,0-1.5,0.3-2.1,1c-0.6,0.6-0.8,1.4-0.8,2.3v5.5H733.1z"/>
	</g>
	<g>
		<path fill="#F65A5B" d="M712,378.6l-0.1-1.9l4.1-4.6c0.5-0.5,0.9-1,1.1-1.5c0.2-0.5,0.3-0.9,0.3-1.4c0-0.6-0.2-1-0.5-1.3
			s-0.8-0.5-1.4-0.5c-0.5,0-1.1,0.1-1.6,0.3s-1,0.5-1.3,0.8l-0.7-1.7c0.9-0.8,2.1-1.2,3.7-1.2c1.3,0,2.3,0.3,3.1,1s1.2,1.5,1.2,2.7
			c0,0.8-0.2,1.6-0.7,2.3c-0.4,0.7-1,1.5-1.8,2.3l-2.9,3.1h5.2l-0.2,1.7H712z"/>
	</g>
	<g>
		<path fill="#F65A5B" d="M559.5,588.8c-0.8,0-1.5-0.1-2.1-0.3s-1.2-0.5-1.6-0.8l0.6-1.7c0.3,0.3,0.8,0.5,1.3,0.7s1.2,0.3,1.7,0.3
			c0.7,0,1.2-0.2,1.6-0.5c0.4-0.4,0.6-0.8,0.6-1.4c0-0.4-0.1-0.7-0.2-0.9c-0.1-0.3-0.3-0.5-0.5-0.6s-0.4-0.3-0.8-0.4
			c-0.3-0.1-0.6-0.2-1-0.2s-0.7-0.1-1.2-0.1c0,0-0.1,0-0.3,0s-0.2,0-0.3,0V581h0.5c0.5,0,0.9,0,1.3-0.1s0.7-0.1,1-0.3
			s0.6-0.3,0.7-0.6c0.2-0.3,0.2-0.6,0.2-0.9c0-0.5-0.2-0.9-0.6-1.3s-0.9-0.5-1.6-0.5c-1.1,0-2.1,0.3-2.9,0.8l-0.6-1.7
			c1.1-0.7,2.3-1,3.8-1c1.2,0,2.2,0.3,3,1c0.8,0.6,1.2,1.5,1.2,2.5c0,0.7-0.2,1.3-0.5,1.8c-0.4,0.5-0.9,0.9-1.6,1.1
			c0.8,0.2,1.4,0.5,1.8,1.1c0.4,0.6,0.6,1.3,0.6,2.1c0,0.8-0.2,1.5-0.6,2s-1,1-1.7,1.3S560.4,588.8,559.5,588.8z"/>
	</g>
	<g>
		<path fill="#F65A5B" d="M305.2,588.8c-1.4,0-2.6-0.4-3.5-1.2s-1.3-1.8-1.3-3.1c0-0.4,0-0.8,0.1-1.2s0.2-0.7,0.4-1.1
			s0.4-0.7,0.5-0.9s0.4-0.6,0.7-1l3.7-4.6h2.7l-4,5c0.4-0.1,0.8-0.2,1.1-0.2c1.3,0,2.3,0.4,3.1,1.1s1.2,1.7,1.2,2.9
			c0,1.3-0.4,2.3-1.3,3S306.6,588.8,305.2,588.8z M305.1,587.1c0.8,0,1.4-0.2,1.8-0.7c0.4-0.4,0.7-1,0.7-1.7c0-0.8-0.2-1.4-0.6-1.8
			s-1-0.7-1.8-0.7c-0.8,0-1.4,0.2-1.8,0.7s-0.6,1-0.6,1.8c0,0.7,0.2,1.3,0.6,1.7S304.3,587.1,305.1,587.1z"/>
	</g>
	<g>
		<path fill="#F65A5B" d="M302.6,503.6l3.9-11.1h-5.3l0-1.8h7.9v1.4l-4.1,11.4H302.6z"/>
	</g>
	<g>
		<path fill="#F65A5B" d="M403.1,378.8c-0.8,0-1.6-0.1-2.3-0.4s-1.2-0.7-1.6-1.2s-0.6-1.2-0.6-2c0-1.5,0.8-2.6,2.3-3.3
			c-1.4-0.6-2-1.7-2-3c0-0.5,0.1-1,0.3-1.5s0.5-0.8,0.9-1.1s0.8-0.5,1.4-0.6s1.1-0.2,1.7-0.2c1.2,0,2.3,0.3,3.1,0.9
			c0.8,0.6,1.2,1.4,1.2,2.5c0,1.4-0.6,2.4-1.9,3c1.4,0.7,2.1,1.8,2.1,3.3c0,0.8-0.2,1.4-0.6,2c-0.4,0.6-1,1-1.6,1.2
			S404,378.8,403.1,378.8z M401.4,376.7c0.4,0.4,1,0.5,1.7,0.5s1.3-0.2,1.7-0.5s0.6-0.9,0.6-1.5c0-0.6-0.2-1.2-0.7-1.6
			s-1-0.7-1.7-0.9c-0.7,0.2-1.3,0.5-1.7,0.9c-0.4,0.4-0.6,1-0.6,1.6C400.8,375.8,401,376.3,401.4,376.7z M403.1,371.3
			c0.7-0.2,1.3-0.4,1.7-0.9s0.6-0.9,0.6-1.6c0-0.5-0.2-1-0.6-1.3s-1-0.5-1.6-0.5c-0.6,0-1.2,0.2-1.6,0.5s-0.6,0.7-0.6,1.3
			c0,0.6,0.2,1.2,0.6,1.6S402.4,371.1,403.1,371.3z"/>
	</g>
	<g>
		<path fill="#4385F5" d="M528.9,377.5v-13.1h3.6c1.6,0,2.8,0.3,3.6,0.8c0.7,0.5,1.1,1.4,1.1,2.5c0,0.1,0,0.2,0,0.3
			c0,0.1,0,0.2,0,0.4s-0.1,0.4-0.1,0.5s-0.1,0.3-0.2,0.5s-0.2,0.4-0.4,0.5c-0.1,0.1-0.3,0.3-0.6,0.4s-0.5,0.3-0.8,0.4
			c0.9,0.1,1.6,0.5,2.1,1.1s0.7,1.3,0.7,2.1c0,1.2-0.4,2.1-1.1,2.7s-1.9,1-3.4,1H528.9z M530,370.2h3c0.5,0,0.9,0,1.2-0.1
			s0.6-0.2,0.9-0.4c0.3-0.2,0.5-0.4,0.6-0.8s0.2-0.7,0.2-1.2c0-0.9-0.3-1.5-0.8-1.9c-0.6-0.4-1.5-0.5-2.7-0.5H530V370.2z M530,376.6
			h3c2.4,0,3.6-0.9,3.6-2.8c0-1-0.3-1.7-1-2.1s-1.7-0.6-3.1-0.6H530V376.6z"/>
		<path fill="#4385F5" d="M539.7,377.5c0-5.7,0-8.9,0-9.6h0.9l0.1,1.9c0.3-0.6,0.8-1,1.3-1.4s1.1-0.5,1.7-0.5c0.2,0,0.5,0,0.8,0.1
			l-0.1,0.9c-0.2,0-0.4-0.1-0.7-0.1c-0.8,0-1.5,0.3-2.1,1c-0.6,0.6-0.8,1.4-0.8,2.3v5.5H539.7z"/>
		<path fill="#4385F5" d="M549.7,377.7c-0.9,0-1.6-0.2-2.3-0.7c-0.7-0.4-1.2-1-1.5-1.8s-0.5-1.6-0.5-2.6c0-0.7,0.1-1.4,0.3-2
			c0.2-0.6,0.5-1.1,0.9-1.6s0.8-0.8,1.4-1.1s1.2-0.4,1.9-0.4c0.9,0,1.7,0.2,2.3,0.7s1.2,1,1.5,1.8s0.5,1.6,0.5,2.6
			c0,1-0.2,1.8-0.5,2.6s-0.8,1.3-1.5,1.8S550.6,377.7,549.7,377.7z M549.8,376.8c0.7,0,1.3-0.2,1.8-0.6c0.5-0.4,0.8-0.9,1.1-1.5
			c0.2-0.6,0.3-1.3,0.3-2.1c0-1.2-0.3-2.2-0.8-3s-1.3-1.1-2.4-1.1c-0.7,0-1.3,0.2-1.8,0.6s-0.9,0.9-1.1,1.5s-0.3,1.3-0.3,2.1
			c0,1.2,0.3,2.2,0.8,3C547.9,376.4,548.7,376.8,549.8,376.8z"/>
		<path fill="#4385F5" d="M557.7,377.5l-2.7-9.6h1.1l2.2,8.6c1.6-5.1,2.5-8,2.7-8.6h1.3c1.8,5.7,2.6,8.6,2.7,8.6l2.1-8.6h1.1
			l-2.6,9.6h-1.3c0,0-0.4-1.3-1.2-4.1s-1.3-4.3-1.4-4.8c-0.1,0.3-0.3,1.2-0.8,2.7c-0.5,1.5-0.9,2.9-1.3,4.2s-0.6,2-0.7,2H557.7z"/>
		<path fill="#4385F5" d="M572.6,377.7c-0.6,0-1.2-0.1-1.7-0.2s-1-0.3-1.3-0.5l0.2-0.9c1,0.5,1.9,0.8,2.8,0.8c1.6,0,2.4-0.6,2.5-1.8
			c0-0.5-0.2-0.9-0.5-1.2c-0.3-0.3-1-0.6-1.9-0.9c-0.5-0.2-0.8-0.3-0.8-0.3c-1.5-0.5-2.3-1.3-2.3-2.4c0-0.7,0.3-1.3,0.9-1.8
			s1.4-0.8,2.4-0.8s2,0.2,2.9,0.6l-0.4,0.8c-0.9-0.3-1.7-0.5-2.5-0.5c-0.7,0-1.2,0.2-1.6,0.5c-0.4,0.3-0.6,0.7-0.6,1.2
			c0,0.4,0.1,0.8,0.4,1c0.3,0.2,0.8,0.5,1.5,0.7c0.1,0,0.2,0.1,0.5,0.2c0.2,0.1,0.3,0.1,0.4,0.1c1,0.3,1.7,0.7,2.1,1.1
			c0.4,0.4,0.6,1,0.6,1.7c0,0.8-0.3,1.5-0.9,2S573.6,377.7,572.6,377.7z"/>
		<path fill="#4385F5" d="M582,377.7c-1.3,0-2.4-0.4-3.2-1.3c-0.8-0.9-1.2-2.1-1.2-3.6c0-1.5,0.4-2.7,1.1-3.6c0.8-0.9,1.8-1.4,3-1.5
			c1.1,0,2,0.4,2.7,1.2s1,1.9,1,3.3c0,0.1,0,0.2,0,0.3c0,0.2,0,0.3,0,0.3h-6.7c0,1.2,0.3,2.2,0.9,2.9s1.4,1.1,2.3,1.1
			c0.6,0,1.2-0.1,1.6-0.2s0.9-0.4,1.5-0.6l0.2,0.8C584.3,377.4,583.2,377.7,582,377.7z M578.9,371.9h5.5c0-1.1-0.2-1.9-0.7-2.5
			s-1.1-0.9-1.9-0.9c-0.8,0-1.5,0.3-2,0.9S579,370.9,578.9,371.9z"/>
		<path fill="#4385F5" d="M587.7,377.5c0-5.7,0-8.9,0-9.6h0.9l0.1,1.9c0.3-0.6,0.8-1,1.3-1.4s1.1-0.5,1.7-0.5c0.2,0,0.5,0,0.8,0.1
			l-0.1,0.9c-0.2,0-0.4-0.1-0.7-0.1c-0.8,0-1.5,0.3-2.1,1c-0.6,0.6-0.8,1.4-0.8,2.3v5.5H587.7z"/>
	</g>
	<g>
		<g>
			<line fill="none" stroke="#204056" stroke-miterlimit="10" x1="580" y1="251.4" x2="580" y2="164.5"/>
			<g>
				<polygon fill="#204056" points="584.1,248.1 583.4,247.4 580,251 576.6,247.4 575.9,248.1 580,252.5 				"/>
			</g>
		</g>
	</g>
	<g>
		<g>
			<line fill="none" stroke="#204056" stroke-miterlimit="10" x1="540" y1="252.5" x2="540" y2="165.5"/>
			<g>
				<polygon fill="#204056" points="544.1,168.9 543.4,169.5 540,165.9 536.6,169.5 535.9,168.9 540,164.5 				"/>
			</g>
		</g>
	</g>
	<g>
		<path fill="#F65A5B" d="M471.1,648.6v-2.9h-5.8v-1.6l5.2-8.4h2.9v8.2h1.6l-0.1,1.7h-1.5v2.9H471.1z M467.6,644h3.5v-6L467.6,644z"
			/>
	</g>
	<g>
		<path fill="#F65A5B" d="M389.8,648.8c-0.6,0-1.2-0.1-1.8-0.3s-1.1-0.4-1.4-0.5s-0.5-0.3-0.6-0.4l0.7-1.7c0.1,0.1,0.3,0.2,0.5,0.3
			s0.6,0.3,1,0.5s0.9,0.3,1.4,0.3c0.8,0,1.4-0.2,1.9-0.7s0.6-1.1,0.6-1.8c0-0.7-0.2-1.3-0.6-1.7c-0.4-0.4-0.9-0.6-1.5-0.6
			c-0.7,0-1.4,0.3-2,0.9l-1.5-0.3l0.3-7h7l-0.1,1.8h-4.8c0,0.1,0,0.6-0.1,1.6s-0.1,1.5-0.1,1.6c0.5-0.3,1.1-0.4,1.6-0.4
			c1.2,0,2.1,0.4,2.9,1.1c0.7,0.8,1.1,1.8,1.1,3c0,1.3-0.4,2.3-1.2,3.1C392.3,648.4,391.2,648.8,389.8,648.8z"/>
	</g>
	<g>
		<g>
			<line fill="none" stroke="#204056" stroke-miterlimit="10" x1="450" y1="681.4" x2="450" y2="594.5"/>
			<g>
				<polygon fill="#204056" points="454.1,678.1 453.4,677.4 450,681 446.6,677.4 445.9,678.1 450,682.5 				"/>
			</g>
		</g>
	</g>
	<g>
		<g>
			<line fill="none" stroke="#204056" stroke-miterlimit="10" x1="410" y1="682.5" x2="410" y2="595.5"/>
			<g>
				<polygon fill="#204056" points="414.1,598.9 413.4,599.5 410,595.9 406.6,599.5 405.9,598.9 410,594.5 				"/>
			</g>
		</g>
	</g>
	<g>
		<rect x="100.6" y="513" opacity="0.15" fill="#59A1C9" width="159" height="49"/>
		<path fill="#59A1C9" d="M259.1,513.5v48h-158v-48H259.1 M260.1,512.5h-160v50h160V512.5L260.1,512.5z"/>
	</g>
	<g>
		<path fill="#59A1C9" d="M165.9,543.5l-4.7-13.1h1.2l3,8.4c0.1,0.4,0.2,0.8,0.4,1.2c0.1,0.4,0.3,0.8,0.4,1.1s0.2,0.7,0.3,1.2
			c0-0.2,0.1-0.4,0.2-0.7c0.1-0.2,0.2-0.6,0.4-1.2c0.2-0.5,0.4-1.1,0.5-1.6c0.4-1.4,0.9-2.8,1.5-4.3s1.1-2.9,1.5-4.1h1.3l-4.8,13.1
			H165.9z"/>
		<path fill="#59A1C9" d="M173.2,531.9v-1.5h1.1v1.5H173.2z M173.2,543.5v-9.6h1.1v9.6H173.2z"/>
		<path fill="#59A1C9" d="M180.9,543.7c-1.3,0-2.4-0.4-3.2-1.3c-0.8-0.9-1.2-2.1-1.2-3.6c0-1.5,0.4-2.7,1.1-3.6
			c0.8-0.9,1.8-1.4,3-1.5c1.1,0,2,0.4,2.7,1.2s1,1.9,1,3.3c0,0.1,0,0.2,0,0.3c0,0.2,0,0.3,0,0.3h-6.7c0,1.2,0.3,2.2,0.9,2.9
			s1.4,1.1,2.3,1.1c0.6,0,1.2-0.1,1.6-0.2s0.9-0.4,1.5-0.6l0.2,0.8C183.2,543.4,182.1,543.7,180.9,543.7z M177.7,537.9h5.5
			c0-1.1-0.2-1.9-0.7-2.5s-1.1-0.9-1.9-0.9c-0.8,0-1.5,0.3-2,0.9S177.8,536.9,177.7,537.9z"/>
		<path fill="#59A1C9" d="M188.2,543.5l-2.7-9.6h1.1l2.2,8.6c1.6-5.1,2.5-8,2.7-8.6h1.3c1.8,5.7,2.6,8.6,2.7,8.6l2.1-8.6h1.1
			l-2.6,9.6h-1.3c0,0-0.4-1.3-1.2-4.1s-1.3-4.3-1.4-4.8c-0.1,0.3-0.3,1.2-0.8,2.7s-0.9,2.9-1.3,4.2s-0.6,2-0.7,2H188.2z"/>
	</g>
	<g>
		<g>
			<line fill="none" stroke="#204056" stroke-miterlimit="10" x1="280.1" y1="522.5" x2="329" y2="522.5"/>
			<g>
				<polygon fill="#204056" points="325.7,526.6 325,525.8 328.6,522.5 325,519.1 325.7,518.4 330.1,522.5 				"/>
			</g>
		</g>
	</g>
	<g>
		<g>
			<line fill="none" stroke="#204056" stroke-miterlimit="10" x1="281.2" y1="552.5" x2="330.1" y2="552.5"/>
			<g>
				<polygon fill="#204056" points="284.5,556.6 285.2,555.8 281.6,552.5 285.2,549.1 284.5,548.4 280.1,552.5 				"/>
			</g>
		</g>
	</g>
	<g>
		<g>
			<line fill="none" stroke="#204056" stroke-miterlimit="10" x1="530.1" y1="722.5" x2="579" y2="722.5"/>
			<g>
				<polygon fill="#204056" points="575.7,726.6 575,725.8 578.6,722.5 575,719.1 575.7,718.4 580.1,722.5 				"/>
			</g>
		</g>
	</g>
	<g>
		<g>
			<line fill="none" stroke="#204056" stroke-miterlimit="10" x1="531.2" y1="752.5" x2="580.1" y2="752.5"/>
			<g>
				<polygon fill="#204056" points="534.5,756.6 535.2,755.8 531.6,752.5 535.2,749.1 534.5,748.4 530.1,752.5 				"/>
			</g>
		</g>
	</g>
</g>
</svg>
